<svg width="512" height="512" viewBox="0 0 512 512" fill="none" xmlns="http://www.w3.org/2000/svg" xmlns:xlink="http://www.w3.org/1999/xlink" class=""><rect id="«r9»" width="512" height="512" x="0" y="0" rx="128" fill="url(#«ra»)" stroke="#FFFFFF" stroke-width="0" stroke-opacity="100%" paint-order="stroke"></rect><clipPath id="clip"><use xlink:href="#«r9»"></use></clipPath><defs><radialGradient id="«ra»" cx="50%" cy="50%" r="100%" fx="50%" fy="0%" gradientUnits="objectBoundingBox"><stop stop-color="#ffbb00"></stop><stop offset="1" stop-color="#ffe74b"></stop></radialGradient><radialGradient id="«rb»" cx="0" cy="0" r="1" gradientUnits="userSpaceOnUse" gradientTransform="translate(256) rotate(90) scale(512)"><stop stop-color="white"></stop><stop offset="1" stop-color="white" stop-opacity="0"></stop></radialGradient></defs><svg xmlns="http://www.w3.org/2000/svg" fill="none" viewBox="0 0 16 16" width="352" height="352" x="80" y="80" alignment-baseline="middle" style="color: rgb(42, 26, 0);"><path stroke="currentColor" stroke-linecap="round" stroke-width="1.5" d="M6.25 3.75 4.354 1.896a.5.5 0 0 0-.704.004L1.9 3.65a.5.5 0 0 0-.004.704L3.75 6.25M8.5 6l-6.544 6.076a.6.6 0 0 0-.016.864l1.12 1.12a.6.6 0 0 0 .864-.016L10 7.5m.5 3 2 2m0 0 1.625 1.625M12.5 12.5l.394.789c.07.139.17.26.295.353l.804.603a.01.01 0 0 0 .013-.001l.119-.119M12.5 12.5l.789.394c.139.07.26.17.353.295l.603.804a.01.01 0 0 1-.001.013l-.119.119m-.957-7.527L14.1 5.48a.684.684 0 0 0-.042-.922.114.114 0 0 0-.131-.021l-.821.41a.5.5 0 0 1-.224.053H12a1 1 0 0 1-1-1v-.882a.5.5 0 0 1 .053-.224l.41-.82a.114.114 0 0 0-.021-.132.684.684 0 0 0-.922-.042l-1.118.932a2.674 2.674 0 1 0 3.767 3.766Z"></path></svg></svg>